<svg width="28" height="27" viewBox="0 0 28 27" fill="none" xmlns="http://www.w3.org/2000/svg">
<g clip-path="url(#clip0_4291_30636)">
<path d="M25.5928 13.8127C25.5928 12.8775 25.5126 12.195 25.3388 11.4872H14.042V15.7085H20.673C20.5393 16.7576 19.8174 18.3375 18.2131 19.3991L18.1906 19.5404L21.7625 22.1563L22.0099 22.1797C24.2826 20.1954 25.5928 17.2758 25.5928 13.8127Z" fill="#00AA11"/>
<path d="M14.0412 24.9351C17.2898 24.9351 20.017 23.9239 22.0091 22.1798L18.2123 19.3991C17.1962 20.069 15.8326 20.5366 14.0412 20.5366C10.8594 20.5366 8.15886 18.5524 7.1962 15.8097L7.0551 15.821L3.34105 18.5384L3.29248 18.6661C5.27107 22.3819 9.33525 24.9351 14.0412 24.9351Z" fill="#34A853"/>
<path d="M7.1969 15.8098C6.94289 15.102 6.79589 14.3436 6.79589 13.56C6.79589 12.7764 6.94289 12.0181 7.18353 11.3103L7.17681 11.1596L3.4162 8.39856L3.29316 8.45389C2.47769 9.99585 2.00977 11.7274 2.00977 13.56C2.00977 15.3927 2.47769 17.1242 3.29316 18.6661L7.1969 15.8098Z" fill="#FBBC05"/>
<path d="M14.0412 6.58336C16.3006 6.58336 17.8246 7.506 18.6936 8.27702L22.0894 5.14256C20.0039 3.30992 17.2899 2.18506 14.0412 2.18506C9.33529 2.18506 5.27108 4.73809 3.29248 8.4539L7.18286 11.3103C8.15889 8.56769 10.8594 6.58336 14.0412 6.58336Z" fill="#EB4335"/>
</g>
<defs>
<clipPath id="clip0_4291_30636">
<rect width="26.952" height="26" fill="white" transform="translate(0.324219 0.560059)"/>
</clipPath>
</defs>
</svg>
